<svg width="30" height="42" viewBox="0 0 30 42" fill="none" xmlns="http://www.w3.org/2000/svg">
<path d="M0 28.0787V1.52314C0 0.507638 1.06294 -0.159278 1.97999 0.280841L12.1426 5.15817C12.621 5.38777 12.9253 5.87067 12.9253 6.40046V27.1358C12.9253 27.8969 13.5437 28.5141 14.3066 28.5141H23.6305C24.3934 28.5141 25.0119 27.8969 25.0119 27.1358V12.2175C25.0119 11.6891 24.7093 11.2073 24.2329 10.9769L22.1012 9.94602L17.0588 7.50741C16.5824 7.27703 16.2799 6.79521 16.2799 6.26694V1.53045C16.2799 0.513155 17.3463 -0.15369 18.2636 0.289957L28.3277 5.15706C28.8038 5.38747 29.1066 5.86929 29.1066 6.39756V28.0647C29.1066 28.4521 28.9432 28.8214 28.6567 29.0825L15.2541 41.2984C14.7199 41.7854 13.8997 41.7784 13.3739 41.2827L0.43267 29.0806C0.156499 28.8203 0 28.4578 0 28.0787Z" fill="url(#paint0_linear_6685_21013)"/>
<defs>
<linearGradient id="paint0_linear_6685_21013" x1="-5.26892e-07" y1="0.06774" x2="29.2208" y2="41.7343" gradientUnits="userSpaceOnUse">
<stop stop-color="#18A5A7"/>
<stop offset="1" stop-color="#BFFFC7"/>
</linearGradient>
</defs>
</svg>